<mxfile host="app.diagrams.net" modified="2024-02-23T04:38:18.214Z" agent="Mozilla/5.0 (Windows NT 10.0; Win64; x64) AppleWebKit/537.36 (KHTML, like Gecko) Chrome/121.0.0.0 Safari/537.36" version="23.1.6" etag="KEPcXw_taRKyd4LVEHE_" type="github">
  <diagram name="第 1 页" id="pytAy4uBa2JzHkffH7v0">
    <mxGraphModel>
      <root>
        <mxCell id="0" />
        <mxCell id="1" parent="0" />
      </root>
    </mxGraphModel>
  </diagram>
</mxfile>
